<svg width="400" height="300" viewBox="0 0 400 300" fill="none" xmlns="http://www.w3.org/2000/svg">
    <style>
        .primary { fill: #FFFFFF; opacity: 0.9; }
        .secondary { fill: #FFFFFF; opacity: 0.6; }
        .accent { fill: #FFFFFF; opacity: 0.3; }
    </style>

    <!-- Background elements -->
    <circle cx="200" cy="150" r="120" class="accent"/>
    <circle cx="120" cy="220" r="60" class="accent"/>
    <circle cx="280" cy="80" r="40" class="accent"/>

    <!-- Main illustration elements -->
    <rect x="130" y="100" width="140" height="170" rx="10" class="primary"/>
    <rect x="150" y="120" width="100" height="10" rx="5" class="secondary"/>
    <rect x="150" y="140" width="100" height="10" rx="5" class="secondary"/>
    <rect x="150" y="170" width="100" height="10" rx="5" class="secondary"/>
    <rect x="150" y="190" width="100" height="10" rx="5" class="secondary"/>
    <rect x="150" y="220" width="60" height="20" rx="5" class="secondary"/>

    <circle cx="260" cy="70" r="30" class="primary"/>
    <path d="M240 90 L280 50" stroke="white" stroke-width="4" stroke-linecap="round"/>
    <path d="M240 50 L280 90" stroke="white" stroke-width="4" stroke-linecap="round"/>

    <path d="M80 180 C100 150 150 170 170 140" stroke="white" stroke-width="3" stroke-linecap="round" fill="none"/>
    <path d="M280 180 C300 150 350 170 370 140" stroke="white" stroke-width="3" stroke-linecap="round" fill="none"/>

    <circle cx="80" cy="180" r="8" class="primary"/>
    <circle cx="170" cy="140" r="8" class="primary"/>
    <circle cx="280" cy="180" r="8" class="primary"/>
    <circle cx="370" cy="140" r="8" class="primary"/>
</svg> 